<svg width="21" height="15" viewBox="0 0 21 15" fill="none" xmlns="http://www.w3.org/2000/svg">
<path d="M20.5914 2.20301C20.4775 1.78041 20.2549 1.39501 19.9457 1.08518C19.6366 0.775338 19.2517 0.551868 18.8294 0.437007C17.2634 0.00700739 10.9984 7.59651e-06 10.9984 7.59651e-06C10.9984 7.59651e-06 4.73438 -0.00699261 3.16738 0.404007C2.7453 0.524154 2.3612 0.750785 2.05194 1.06214C1.74269 1.3735 1.51866 1.75913 1.40138 2.18201C0.988377 3.74801 0.984376 6.99601 0.984376 6.99601C0.984376 6.99601 0.980376 10.26 1.39038 11.81C1.62038 12.667 2.29538 13.344 3.15338 13.575C4.73538 14.005 10.9834 14.012 10.9834 14.012C10.9834 14.012 17.2484 14.019 18.8144 13.609C19.2369 13.4943 19.6221 13.2714 19.932 12.9622C20.2419 12.653 20.4658 12.2682 20.5814 11.846C20.9954 10.281 20.9984 7.03401 20.9984 7.03401C20.9984 7.03401 21.0184 3.76901 20.5914 2.20301ZM8.99438 10.005L8.99938 4.00501L14.2064 7.01001L8.99438 10.005Z" fill="#FF0000"/>
</svg>
